ply
format ascii 1.0
comment VCGLIB generated
comment TextureFile Warehouse_WoodCrate_.png
element vertex 384
property float x
property float y
property float z
property float nx
property float ny
property float nz
property uchar red
property uchar green
property uchar blue
property uchar alpha
property float texture_u
property float texture_v
element face 192
property list uchar int vertex_indices
end_header
15.80628 8.302543 14.1922 0 1 -1.629207e-07 255 255 255 255 0.985437 0.985437
14.76711 8.302543 13.15303 0 1 -1.629207e-07 255 255 255 255 0.014563 0.014563
14.76711 8.302543 14.1922 0 1 -1.629207e-07 255 255 255 255 0.985437 0.014563
14.76711 8.302543 13.15303 0 -1.629207e-07 -1 255 255 255 255 0.985437 0.014563
15.80628 7.26337 13.15303 0 -1.629207e-07 -1 255 255 255 255 0.014563 0.985437
14.76711 7.26337 13.15303 0 -1.629207e-07 -1 255 255 255 255 0.014563 0.014563
15.80628 8.302543 13.15303 1 0 -0 255 255 255 255 0.985437 0.014563
15.80628 7.26337 14.1922 1 0 -0 255 255 255 255 0.014563 0.985437
15.80628 7.26337 13.15303 1 0 -0 255 255 255 255 0.014563 0.014563
14.76711 7.26337 14.1922 -0 -1 1.629207e-07 255 255 255 255 0.014563 0.985437
15.80628 7.26337 13.15303 -0 -1 1.629207e-07 255 255 255 255 0.985437 0.014563
15.80628 7.26337 14.1922 -0 -1 1.629207e-07 255 255 255 255 0.985437 0.985437
14.76711 8.302543 14.1922 -1 0 0 255 255 255 255 0.985437 0.014563
14.76711 7.26337 13.15303 -1 0 0 255 255 255 255 0.014563 0.985437
14.76711 7.26337 14.1922 -1 0 0 255 255 255 255 0.014563 0.014563
15.80628 8.302543 14.1922 0 1.629207e-07 1 255 255 255 255 0.985437 0.014563
14.76711 7.26337 14.1922 0 1.629207e-07 1 255 255 255 255 0.014563 0.985437
15.80628 7.26337 14.1922 0 1.629207e-07 1 255 255 255 255 0.014563 0.014563
5.109051 1.465555 5.070965 0 1 -1.629207e-07 255 255 255 255 0.985437 0.985437
4.069878 1.465555 4.031792 0 1 -1.629207e-07 255 255 255 255 0.014563 0.014563
4.069878 1.465555 5.070965 0 1 -1.629207e-07 255 255 255 255 0.985437 0.014563
4.069878 1.465555 4.031792 0 -1.629207e-07 -1 255 255 255 255 0.985437 0.014563
5.109051 0.4263816 4.031792 0 -1.629207e-07 -1 255 255 255 255 0.014563 0.985437
4.069878 0.4263816 4.031792 0 -1.629207e-07 -1 255 255 255 255 0.014563 0.014563
5.109051 1.465555 4.031792 1 0 -0 255 255 255 255 0.985437 0.014563
5.109051 0.4263816 5.070965 1 0 -0 255 255 255 255 0.014563 0.985437
5.109051 0.4263816 4.031792 1 0 -0 255 255 255 255 0.014563 0.014563
4.069878 0.4263816 5.070965 -0 -1 1.629207e-07 255 255 255 255 0.014563 0.985437
5.109051 0.4263816 4.031792 -0 -1 1.629207e-07 255 255 255 255 0.985437 0.014563
5.109051 0.4263816 5.070965 -0 -1 1.629207e-07 255 255 255 255 0.985437 0.985437
4.069878 1.465555 5.070965 -1 0 0 255 255 255 255 0.985437 0.014563
4.069878 0.4263816 4.031792 -1 0 0 255 255 255 255 0.014563 0.985437
4.069878 0.4263816 5.070965 -1 0 0 255 255 255 255 0.014563 0.014563
5.109051 1.465555 5.070965 0 1.629207e-07 1 255 255 255 255 0.985437 0.014563
4.069878 0.4263816 5.070965 0 1.629207e-07 1 255 255 255 255 0.014563 0.985437
5.109051 0.4263816 5.070965 0 1.629207e-07 1 255 255 255 255 0.014563 0.014563
5.14472 1.562061 6.870177 0 1 -1.629207e-07 255 255 255 255 0.985437 0.985437
4.034208 1.56206 5.759666 0 1 -1.629207e-07 255 255 255 255 0.014563 0.014563
4.034208 1.562061 6.870177 0 1 -1.629207e-07 255 255 255 255 0.985437 0.014563
4.034208 1.56206 5.759666 0 -1.629207e-07 -1 255 255 255 255 0.985437 0.014563
5.14472 0.45155 5.759666 0 -1.629207e-07 -1 255 255 255 255 0.014563 0.985437
4.034208 0.45155 5.759666 0 -1.629207e-07 -1 255 255 255 255 0.014563 0.014563
5.14472 1.56206 5.759666 1 0 -0 255 255 255 255 0.985437 0.014563
5.14472 0.4515505 6.870177 1 0 -0 255 255 255 255 0.014563 0.985437
5.14472 0.45155 5.759666 1 0 -0 255 255 255 255 0.014563 0.014563
4.034208 0.4515505 6.870177 -0 -1 1.629207e-07 255 255 255 255 0.014563 0.985437
5.14472 0.45155 5.759666 -0 -1 1.629207e-07 255 255 255 255 0.985437 0.014563
5.14472 0.4515505 6.870177 -0 -1 1.629207e-07 255 255 255 255 0.985437 0.985437
4.034208 1.562061 6.870177 -1 0 0 255 255 255 255 0.985437 0.014563
4.034208 0.45155 5.759666 -1 0 0 255 255 255 255 0.014563 0.985437
4.034208 0.4515505 6.870177 -1 0 0 255 255 255 255 0.014563 0.014563
5.14472 1.562061 6.870177 0 1.629207e-07 1 255 255 255 255 0.985437 0.014563
4.034208 0.4515505 6.870177 0 1.629207e-07 1 255 255 255 255 0.014563 0.985437
5.14472 0.4515505 6.870177 0 1.629207e-07 1 255 255 255 255 0.014563 0.014563
10.33993 1.562061 6.870177 0 1 -1.629207e-07 255 255 255 255 0.985437 0.985437
9.229414 1.56206 5.759666 0 1 -1.629207e-07 255 255 255 255 0.014563 0.014563
9.229414 1.562061 6.870177 0 1 -1.629207e-07 255 255 255 255 0.985437 0.014563
9.229414 1.56206 5.759666 0 -1.629207e-07 -1 255 255 255 255 0.985437 0.014563
10.33993 0.45155 5.759666 0 -1.629207e-07 -1 255 255 255 255 0.014563 0.985437
9.229414 0.45155 5.759666 0 -1.629207e-07 -1 255 255 255 255 0.014563 0.014563
10.33993 1.56206 5.759666 1 0 -0 255 255 255 255 0.985437 0.014563
10.33993 0.4515505 6.870177 1 0 -0 255 255 255 255 0.014563 0.985437
10.33993 0.45155 5.759666 1 0 -0 255 255 255 255 0.014563 0.014563
9.229414 0.4515505 6.870177 -0 -1 1.629207e-07 255 255 255 255 0.014563 0.985437
10.33993 0.45155 5.759666 -0 -1 1.629207e-07 255 255 255 255 0.985437 0.014563
10.33993 0.4515505 6.870177 -0 -1 1.629207e-07 255 255 255 255 0.985437 0.985437
9.229414 1.562061 6.870177 -1 0 0 255 255 255 255 0.985437 0.014563
9.229414 0.45155 5.759666 -1 0 0 255 255 255 255 0.014563 0.985437
9.229414 0.4515505 6.870177 -1 0 0 255 255 255 255 0.014563 0.014563
10.33993 1.562061 6.870177 0 1.629207e-07 1 255 255 255 255 0.985437 0.014563
9.229414 0.4515505 6.870177 0 1.629207e-07 1 255 255 255 255 0.014563 0.985437
10.33993 0.4515505 6.870177 0 1.629207e-07 1 255 255 255 255 0.014563 0.014563
27.59549 1.56206 -5.559571 0 1 -1.629207e-07 255 255 255 255 0.985437 0.985437
26.48498 1.56206 -6.670083 0 1 -1.629207e-07 255 255 255 255 0.014563 0.014563
26.48498 1.56206 -5.559571 0 1 -1.629207e-07 255 255 255 255 0.985437 0.014563
26.48498 1.56206 -6.670083 0 -1.629207e-07 -1 255 255 255 255 0.985437 0.014563
27.59549 0.45155 -6.670081 0 -1.629207e-07 -1 255 255 255 255 0.014563 0.985437
26.48498 0.45155 -6.670081 0 -1.629207e-07 -1 255 255 255 255 0.014563 0.014563
27.59549 1.56206 -6.670083 1 0 -0 255 255 255 255 0.985437 0.014563
27.59549 0.45155 -5.559569 1 0 -0 255 255 255 255 0.014563 0.985437
27.59549 0.45155 -6.670081 1 0 -0 255 255 255 255 0.014563 0.014563
26.48498 0.45155 -5.559569 -0 -1 1.629207e-07 255 255 255 255 0.014563 0.985437
27.59549 0.45155 -6.670081 -0 -1 1.629207e-07 255 255 255 255 0.985437 0.014563
27.59549 0.45155 -5.559569 -0 -1 1.629207e-07 255 255 255 255 0.985437 0.985437
26.48498 1.56206 -5.559571 -1 0 0 255 255 255 255 0.985437 0.014563
26.48498 0.45155 -6.670081 -1 0 0 255 255 255 255 0.014563 0.985437
26.48498 0.45155 -5.559569 -1 0 0 255 255 255 255 0.014563 0.014563
27.59549 1.56206 -5.559571 0 1.629207e-07 1 255 255 255 255 0.985437 0.014563
26.48498 0.45155 -5.559569 0 1.629207e-07 1 255 255 255 255 0.014563 0.985437
27.59549 0.45155 -5.559569 0 1.629207e-07 1 255 255 255 255 0.014563 0.014563
-12.8815 1.56206 -5.559571 0 1 -1.629207e-07 255 255 255 255 0.985437 0.985437
-13.99201 1.56206 -6.670083 0 1 -1.629207e-07 255 255 255 255 0.014563 0.014563
-13.99201 1.56206 -5.559571 0 1 -1.629207e-07 255 255 255 255 0.985437 0.014563
-13.99201 1.56206 -6.670083 0 -1.629207e-07 -1 255 255 255 255 0.985437 0.014563
-12.8815 0.45155 -6.670081 0 -1.629207e-07 -1 255 255 255 255 0.014563 0.985437
-13.99201 0.45155 -6.670081 0 -1.629207e-07 -1 255 255 255 255 0.014563 0.014563
-12.8815 1.56206 -6.670083 1 0 -0 255 255 255 255 0.985437 0.014563
-12.8815 0.45155 -5.559569 1 0 -0 255 255 255 255 0.014563 0.985437
-12.8815 0.45155 -6.670081 1 0 -0 255 255 255 255 0.014563 0.014563
-13.99201 0.45155 -5.559569 -0 -1 1.629207e-07 255 255 255 255 0.014563 0.985437
-12.8815 0.45155 -6.670081 -0 -1 1.629207e-07 255 255 255 255 0.985437 0.014563
-12.8815 0.45155 -5.559569 -0 -1 1.629207e-07 255 255 255 255 0.985437 0.985437
-13.99201 1.56206 -5.559571 -1 0 0 255 255 255 255 0.985437 0.014563
-13.99201 0.45155 -6.670081 -1 0 0 255 255 255 255 0.014563 0.985437
-13.99201 0.45155 -5.559569 -1 0 0 255 255 255 255 0.014563 0.014563
-12.8815 1.56206 -5.559571 0 1.629207e-07 1 255 255 255 255 0.985437 0.014563
-13.99201 0.45155 -5.559569 0 1.629207e-07 1 255 255 255 255 0.014563 0.985437
-12.8815 0.45155 -5.559569 0 1.629207e-07 1 255 255 255 255 0.014563 0.014563
-12.67663 2.677608 -5.559571 0 1 -1.629207e-07 255 255 255 255 0.985437 0.985437
-13.78714 2.677608 -6.670083 0 1 -1.629207e-07 255 255 255 255 0.014563 0.014563
-13.78714 2.677608 -5.559571 0 1 -1.629207e-07 255 255 255 255 0.985437 0.014563
-13.78714 2.677608 -6.670083 0 -1.629207e-07 -1 255 255 255 255 0.985437 0.014563
-12.67663 1.567099 -6.670083 0 -1.629207e-07 -1 255 255 255 255 0.014563 0.985437
-13.78714 1.567099 -6.670083 0 -1.629207e-07 -1 255 255 255 255 0.014563 0.014563
-12.67663 2.677608 -6.670083 1 0 -0 255 255 255 255 0.985437 0.014563
-12.67663 1.567099 -5.559571 1 0 -0 255 255 255 255 0.014563 0.985437
-12.67663 1.567099 -6.670083 1 0 -0 255 255 255 255 0.014563 0.014563
-13.78714 1.567099 -5.559571 -0 -1 1.629207e-07 255 255 255 255 0.014563 0.985437
-12.67663 1.567099 -6.670083 -0 -1 1.629207e-07 255 255 255 255 0.985437 0.014563
-12.67663 1.567099 -5.559571 -0 -1 1.629207e-07 255 255 255 255 0.985437 0.985437
-13.78714 2.677608 -5.559571 -1 0 0 255 255 255 255 0.985437 0.014563
-13.78714 1.567099 -6.670083 -1 0 0 255 255 255 255 0.014563 0.985437
-13.78714 1.567099 -5.559571 -1 0 0 255 255 255 255 0.014563 0.014563
-12.67663 2.677608 -5.559571 0 1.629207e-07 1 255 255 255 255 0.985437 0.014563
-13.78714 1.567099 -5.559571 0 1.629207e-07 1 255 255 255 255 0.014563 0.985437
-12.67663 1.567099 -5.559571 0 1.629207e-07 1 255 255 255 255 0.014563 0.014563
-15.13672 2.876705 -7.891006 0 1 -1.629207e-07 255 255 255 255 0.985437 0.985437
-16.24723 2.876705 -9.001517 0 1 -1.629207e-07 255 255 255 255 0.014563 0.014563
-16.24723 2.876705 -7.891006 0 1 -1.629207e-07 255 255 255 255 0.985437 0.014563
-16.24723 2.876705 -9.001517 0 -1.629207e-07 -1 255 255 255 255 0.985437 0.014563
-15.13672 1.766194 -9.001517 0 -1.629207e-07 -1 255 255 255 255 0.014563 0.985437
-16.24723 1.766194 -9.001517 0 -1.629207e-07 -1 255 255 255 255 0.014563 0.014563
-15.13672 2.876705 -9.001517 1 0 -0 255 255 255 255 0.985437 0.014563
-15.13672 1.766195 -7.891006 1 0 -0 255 255 255 255 0.014563 0.985437
-15.13672 1.766194 -9.001517 1 0 -0 255 255 255 255 0.014563 0.014563
-16.24723 1.766195 -7.891006 -0 -1 1.629207e-07 255 255 255 255 0.014563 0.985437
-15.13672 1.766194 -9.001517 -0 -1 1.629207e-07 255 255 255 255 0.985437 0.014563
-15.13672 1.766195 -7.891006 -0 -1 1.629207e-07 255 255 255 255 0.985437 0.985437
-16.24723 2.876705 -7.891006 -1 0 0 255 255 255 255 0.985437 0.014563
-16.24723 1.766194 -9.001517 -1 0 0 255 255 255 255 0.014563 0.985437
-16.24723 1.766195 -7.891006 -1 0 0 255 255 255 255 0.014563 0.014563
-15.13672 2.876705 -7.891006 0 1.629207e-07 1 255 255 255 255 0.985437 0.014563
-16.24723 1.766195 -7.891006 0 1.629207e-07 1 255 255 255 255 0.014563 0.985437
-15.13672 1.766195 -7.891006 0 1.629207e-07 1 255 255 255 255 0.014563 0.014563
-33.2226 1.56206 -5.559571 0 1 -1.629207e-07 255 255 255 255 0.985437 0.985437
-34.33311 1.56206 -6.670083 0 1 -1.629207e-07 255 255 255 255 0.014563 0.014563
-34.33311 1.56206 -5.559571 0 1 -1.629207e-07 255 255 255 255 0.985437 0.014563
-34.33311 1.56206 -6.670083 0 -1.629207e-07 -1 255 255 255 255 0.985437 0.014563
-33.2226 0.45155 -6.670081 0 -1.629207e-07 -1 255 255 255 255 0.014563 0.985437
-34.33311 0.45155 -6.670081 0 -1.629207e-07 -1 255 255 255 255 0.014563 0.014563
-33.2226 1.56206 -6.670083 1 0 -0 255 255 255 255 0.985437 0.014563
-33.2226 0.45155 -5.559569 1 0 -0 255 255 255 255 0.014563 0.985437
-33.2226 0.45155 -6.670081 1 0 -0 255 255 255 255 0.014563 0.014563
-34.33311 0.45155 -5.559569 -0 -1 1.629207e-07 255 255 255 255 0.014563 0.985437
-33.2226 0.45155 -6.670081 -0 -1 1.629207e-07 255 255 255 255 0.985437 0.014563
-33.2226 0.45155 -5.559569 -0 -1 1.629207e-07 255 255 255 255 0.985437 0.985437
-34.33311 1.56206 -5.559571 -1 0 0 255 255 255 255 0.985437 0.014563
-34.33311 0.45155 -6.670081 -1 0 0 255 255 255 255 0.014563 0.985437
-34.33311 0.45155 -5.559569 -1 0 0 255 255 255 255 0.014563 0.014563
-33.2226 1.56206 -5.559571 0 1.629207e-07 1 255 255 255 255 0.985437 0.014563
-34.33311 0.45155 -5.559569 0 1.629207e-07 1 255 255 255 255 0.014563 0.985437
-33.2226 0.45155 -5.559569 0 1.629207e-07 1 255 255 255 255 0.014563 0.014563
-33.01773 2.677608 -5.559571 0 1 -1.629207e-07 255 255 255 255 0.985437 0.985437
-34.12824 2.677608 -6.670083 0 1 -1.629207e-07 255 255 255 255 0.014563 0.014563
-34.12824 2.677608 -5.559571 0 1 -1.629207e-07 255 255 255 255 0.985437 0.014563
-34.12824 2.677608 -6.670083 0 -1.629207e-07 -1 255 255 255 255 0.985437 0.014563
-33.01773 1.567099 -6.670083 0 -1.629207e-07 -1 255 255 255 255 0.014563 0.985437
-34.12824 1.567099 -6.670083 0 -1.629207e-07 -1 255 255 255 255 0.014563 0.014563
-33.01773 2.677608 -6.670083 1 0 -0 255 255 255 255 0.985437 0.014563
-33.01773 1.567099 -5.559571 1 0 -0 255 255 255 255 0.014563 0.985437
-33.01773 1.567099 -6.670083 1 0 -0 255 255 255 255 0.014563 0.014563
-34.12824 1.567099 -5.559571 -0 -1 1.629207e-07 255 255 255 255 0.014563 0.985437
-33.01773 1.567099 -6.670083 -0 -1 1.629207e-07 255 255 255 255 0.985437 0.014563
-33.01773 1.567099 -5.559571 -0 -1 1.629207e-07 255 255 255 255 0.985437 0.985437
-34.12824 2.677608 -5.559571 -1 0 0 255 255 255 255 0.985437 0.014563
-34.12824 1.567099 -6.670083 -1 0 0 255 255 255 255 0.014563 0.985437
-34.12824 1.567099 -5.559571 -1 0 0 255 255 255 255 0.014563 0.014563
-33.01773 2.677608 -5.559571 0 1.629207e-07 1 255 255 255 255 0.985437 0.014563
-34.12824 1.567099 -5.559571 0 1.629207e-07 1 255 255 255 255 0.014563 0.985437
-33.01773 1.567099 -5.559571 0 1.629207e-07 1 255 255 255 255 0.014563 0.014563
-35.47782 2.876705 -7.891006 0 1 -1.629207e-07 255 255 255 255 0.985437 0.985437
-36.58833 2.876705 -9.001517 0 1 -1.629207e-07 255 255 255 255 0.014563 0.014563
-36.58833 2.876705 -7.891006 0 1 -1.629207e-07 255 255 255 255 0.985437 0.014563
-36.58833 2.876705 -9.001517 0 -1.629207e-07 -1 255 255 255 255 0.985437 0.014563
-35.47782 1.766194 -9.001517 0 -1.629207e-07 -1 255 255 255 255 0.014563 0.985437
-36.58833 1.766194 -9.001517 0 -1.629207e-07 -1 255 255 255 255 0.014563 0.014563
-35.47782 2.876705 -9.001517 1 0 -0 255 255 255 255 0.985437 0.014563
-35.47782 1.766195 -7.891006 1 0 -0 255 255 255 255 0.014563 0.985437
-35.47782 1.766194 -9.001517 1 0 -0 255 255 255 255 0.014563 0.014563
-36.58833 1.766195 -7.891006 -0 -1 1.629207e-07 255 255 255 255 0.014563 0.985437
-35.47782 1.766194 -9.001517 -0 -1 1.629207e-07 255 255 255 255 0.985437 0.014563
-35.47782 1.766195 -7.891006 -0 -1 1.629207e-07 255 255 255 255 0.985437 0.985437
-36.58833 2.876705 -7.891006 -1 0 0 255 255 255 255 0.985437 0.014563
-36.58833 1.766194 -9.001517 -1 0 0 255 255 255 255 0.014563 0.985437
-36.58833 1.766195 -7.891006 -1 0 0 255 255 255 255 0.014563 0.014563
-35.47782 2.876705 -7.891006 0 1.629207e-07 1 255 255 255 255 0.985437 0.014563
-36.58833 1.766195 -7.891006 0 1.629207e-07 1 255 255 255 255 0.014563 0.985437
-35.47782 1.766195 -7.891006 0 1.629207e-07 1 255 255 255 255 0.014563 0.014563
-35.60282 1.763325 -7.808736 0 1 -1.629207e-07 255 255 255 255 0.985437 0.985437
-36.71333 1.763325 -8.919248 0 1 -1.629207e-07 255 255 255 255 0.014563 0.014563
-36.71333 1.763325 -7.808736 0 1 -1.629207e-07 255 255 255 255 0.985437 0.014563
-36.71333 1.763325 -8.919248 0 -1.629207e-07 -1 255 255 255 255 0.985437 0.014563
-35.60282 0.4518409 -8.919246 0 -1.629207e-07 -1 255 255 255 255 0.014563 0.985437
-36.71333 0.4518409 -8.919246 0 -1.629207e-07 -1 255 255 255 255 0.014563 0.014563
-35.60282 1.763325 -8.919248 1 0 -0 255 255 255 255 0.985437 0.014563
-35.60282 0.4518414 -7.808734 1 0 -0 255 255 255 255 0.014563 0.985437
-35.60282 0.4518409 -8.919246 1 0 -0 255 255 255 255 0.014563 0.014563
-36.71333 0.4518414 -7.808734 -0 -1 1.629207e-07 255 255 255 255 0.014563 0.985437
-35.60282 0.4518409 -8.919246 -0 -1 1.629207e-07 255 255 255 255 0.985437 0.014563
-35.60282 0.4518414 -7.808734 -0 -1 1.629207e-07 255 255 255 255 0.985437 0.985437
-36.71333 1.763325 -7.808736 -1 0 0 255 255 255 255 0.985437 0.014563
-36.71333 0.4518409 -8.919246 -1 0 0 255 255 255 255 0.014563 0.985437
-36.71333 0.4518414 -7.808734 -1 0 0 255 255 255 255 0.014563 0.014563
-35.60282 1.763325 -7.808736 0 1.629207e-07 1 255 255 255 255 0.985437 0.014563
-36.71333 0.4518414 -7.808734 0 1.629207e-07 1 255 255 255 255 0.014563 0.985437
-35.60282 0.4518414 -7.808734 0 1.629207e-07 1 255 255 255 255 0.014563 0.014563
-34.27803 1.549045 9.09646 0 1 -1.629207e-07 255 255 255 255 0.985437 0.985437
-35.3172 1.549045 6.482317 0 1 -1.629207e-07 255 255 255 255 0.014563 0.014563
-35.3172 1.549045 9.09646 0 1 -1.629207e-07 255 255 255 255 0.985437 0.014563
-35.3172 1.549045 6.482317 0 -1.629207e-07 -1 255 255 255 255 0.985437 0.014563
-34.27803 0.509872 6.482317 0 -1.629207e-07 -1 255 255 255 255 0.014563 0.985437
-35.3172 0.509872 6.482317 0 -1.629207e-07 -1 255 255 255 255 0.014563 0.014563
-34.27803 1.549045 6.482317 1 0 -0 255 255 255 255 0.985437 0.014563
-34.27803 0.509872 9.09646 1 0 -0 255 255 255 255 0.014563 0.985437
-34.27803 0.509872 6.482317 1 0 -0 255 255 255 255 0.014563 0.014563
-35.3172 0.509872 9.09646 -0 -1 1.629207e-07 255 255 255 255 0.014563 0.985437
-34.27803 0.509872 6.482317 -0 -1 1.629207e-07 255 255 255 255 0.985437 0.014563
-34.27803 0.509872 9.09646 -0 -1 1.629207e-07 255 255 255 255 0.985437 0.985437
-35.3172 1.549045 9.09646 -1 0 0 255 255 255 255 0.985437 0.014563
-35.3172 0.509872 6.482317 -1 0 0 255 255 255 255 0.014563 0.985437
-35.3172 0.509872 9.09646 -1 0 0 255 255 255 255 0.014563 0.014563
-34.27803 1.549045 9.09646 0 1.629207e-07 1 255 255 255 255 0.985437 0.014563
-35.3172 0.509872 9.09646 0 1.629207e-07 1 255 255 255 255 0.014563 0.985437
-34.27803 0.509872 9.09646 0 1.629207e-07 1 255 255 255 255 0.014563 0.014563
-54.17661 1.549046 7.269802 -2.263432e-07 1 3.700743e-07 255 255 255 255 0.985437 0.985437
-56.79076 1.549045 8.308975 -3.208767e-07 1 6.202214e-09 255 255 255 255 0.014563 0.014563
-54.17661 1.549045 8.308975 -1.824054e-07 1 5.391963e-07 255 255 255 255 0.985437 0.014563
-56.79076 1.549045 8.308975 -1 3.498316e-06 -5.699481e-13 255 255 255 255 0.985437 0.014563
-56.79076 0.509872 7.269802 -1 3.498321e-06 -5.699488e-13 255 255 255 255 0.014563 0.985437
-56.79076 0.5098715 8.308975 -1 0 0 255 255 255 255 0.014563 0.014563
-56.79076 0.509872 7.269802 -3.182999e-07 1.854121e-07 -1 255 255 255 255 0.014563 0.014563
-54.17661 1.549046 7.269802 -1.009983e-07 -5.239284e-08 -1 255 255 255 255 0.985437 0.985437
-54.17661 0.5098724 7.269802 0 -1.629207e-07 -1 255 255 255 255 0.014563 0.985437
-54.17661 0.509872 8.308975 1.824062e-07 -1 -1.75324e-07 255 255 255 255 0.014563 0.985437
-56.79076 0.509872 7.269802 1.824057e-07 -1 -9.030687e-07 255 255 255 255 0.985437 0.014563
-54.17661 0.5098724 7.269802 1.824065e-07 -1 1.629207e-07 255 255 255 255 0.985437 0.985437
-54.17661 1.549045 8.308975 9.690934e-08 1.629207e-07 1 255 255 255 255 0.985437 0.014563
-56.79076 0.5098715 8.308975 3.074988e-08 1.629207e-07 1 255 255 255 255 0.014563 0.985437
-54.17661 0.509872 8.308975 1.276592e-07 1.629207e-07 1 255 255 255 255 0.014563 0.014563
-54.17661 0.5098724 7.269802 1 -5.980649e-13 -3.670896e-06 255 255 255 255 0.014563 0.014563
-54.17661 1.549045 8.308975 1 -5.980641e-13 -3.670891e-06 255 255 255 255 0.985437 0.985437
-54.17661 0.509872 8.308975 1 0 -0 255 255 255 255 0.014563 0.985437
-58.13181 2.191442 5.57881 -1 -2.807514e-06 4.574021e-13 255 255 255 255 0.985437 0.985437
-58.1318 0.4227476 6.617984 -1 -5.49442e-06 8.951547e-13 255 255 255 255 0.014563 0.014563
-58.13181 2.191442 6.617984 -1 0 0 255 255 255 255 0.985437 0.014563
-58.1318 0.4227476 6.617984 2.29434e-07 -1 1.629207e-07 255 255 255 255 0.985437 0.014563
-57.09263 0.4227476 5.57881 2.294354e-07 -1 1.629207e-07 255 255 255 255 0.014563 0.985437
-57.09263 0.4227476 6.617984 -0 -1 1.629207e-07 255 255 255 255 0.014563 0.014563
-58.1318 0.4227471 5.57881 1.645995e-08 -1.629207e-07 -1 255 255 255 255 0.985437 0.014563
-57.09263 2.191442 5.57881 3.22128e-08 -1.629207e-07 -1 255 255 255 255 0.014563 0.985437
-57.09263 0.4227476 5.57881 0 -1.629207e-07 -1 255 255 255 255 0.014563 0.014563
-57.09263 2.191442 6.617984 1 0 -0 255 255 255 255 0.014563 0.985437
-57.09263 0.4227476 5.57881 1 0 -0 255 255 255 255 0.985437 0.014563
-57.09263 2.191442 5.57881 1 0 -0 255 255 255 255 0.985437 0.985437
-57.09263 2.191442 6.617984 0 1.629207e-07 1 255 255 255 255 0.014563 0.014563
-58.1318 0.4227476 6.617984 0 1.629207e-07 1 255 255 255 255 0.985437 0.985437
-57.09263 0.4227476 6.617984 0 1.629207e-07 1 255 255 255 255 0.014563 0.985437
-58.13181 2.191442 5.57881 -2.294311e-07 1 2.786436e-07 255 255 255 255 0.985437 0.014563
-57.09263 2.191442 6.617984 -2.294319e-07 1 2.786452e-07 255 255 255 255 0.014563 0.985437
-57.09263 2.191442 5.57881 -4.58863e-07 1 7.202094e-07 255 255 255 255 0.014563 0.014563
-58.88653 1.56206 -5.559571 0 1 -1.629207e-07 255 255 255 255 0.985437 0.985437
-59.99703 1.56206 -6.670083 0 1 -1.629207e-07 255 255 255 255 0.014563 0.014563
-59.99703 1.56206 -5.559571 0 1 -1.629207e-07 255 255 255 255 0.985437 0.014563
-59.99703 1.56206 -6.670083 0 -1.629207e-07 -1 255 255 255 255 0.985437 0.014563
-58.88653 0.45155 -6.670081 0 -1.629207e-07 -1 255 255 255 255 0.014563 0.985437
-59.99703 0.45155 -6.670081 0 -1.629207e-07 -1 255 255 255 255 0.014563 0.014563
-58.88653 1.56206 -6.670083 1 0 -0 255 255 255 255 0.985437 0.014563
-58.88653 0.45155 -5.559569 1 0 -0 255 255 255 255 0.014563 0.985437
-58.88653 0.45155 -6.670081 1 0 -0 255 255 255 255 0.014563 0.014563
-59.99703 0.45155 -5.559569 -0 -1 1.629207e-07 255 255 255 255 0.014563 0.985437
-58.88653 0.45155 -6.670081 -0 -1 1.629207e-07 255 255 255 255 0.985437 0.014563
-58.88653 0.45155 -5.559569 -0 -1 1.629207e-07 255 255 255 255 0.985437 0.985437
-59.99703 1.56206 -5.559571 -1 0 0 255 255 255 255 0.985437 0.014563
-59.99703 0.45155 -6.670081 -1 0 0 255 255 255 255 0.014563 0.985437
-59.99703 0.45155 -5.559569 -1 0 0 255 255 255 255 0.014563 0.014563
-58.88653 1.56206 -5.559571 0 1.629207e-07 1 255 255 255 255 0.985437 0.014563
-59.99703 0.45155 -5.559569 0 1.629207e-07 1 255 255 255 255 0.014563 0.985437
-58.88653 0.45155 -5.559569 0 1.629207e-07 1 255 255 255 255 0.014563 0.014563
15.80628 8.302543 13.15303 0 1 -1.629207e-07 255 255 255 255 0.014563 0.985437
15.80628 8.302543 13.15303 0 -1.629207e-07 -1 255 255 255 255 0.985437 0.985437
15.80628 8.302543 14.1922 1 0 -0 255 255 255 255 0.985437 0.985437
14.76711 7.26337 13.15303 -0 -1 1.629207e-07 255 255 255 255 0.014563 0.014563
14.76711 8.302543 13.15303 -1 0 0 255 255 255 255 0.985437 0.985437
14.76711 8.302543 14.1922 0 1.629207e-07 1 255 255 255 255 0.985437 0.985437
5.109051 1.465555 4.031792 0 1 -1.629207e-07 255 255 255 255 0.014563 0.985437
5.109051 1.465555 4.031792 0 -1.629207e-07 -1 255 255 255 255 0.985437 0.985437
5.109051 1.465555 5.070965 1 0 -0 255 255 255 255 0.985437 0.985437
4.069878 0.4263816 4.031792 -0 -1 1.629207e-07 255 255 255 255 0.014563 0.014563
4.069878 1.465555 4.031792 -1 0 0 255 255 255 255 0.985437 0.985437
4.069878 1.465555 5.070965 0 1.629207e-07 1 255 255 255 255 0.985437 0.985437
5.14472 1.56206 5.759666 0 1 -1.629207e-07 255 255 255 255 0.014563 0.985437
5.14472 1.56206 5.759666 0 -1.629207e-07 -1 255 255 255 255 0.985437 0.985437
5.14472 1.562061 6.870177 1 0 -0 255 255 255 255 0.985437 0.985437
4.034208 0.45155 5.759666 -0 -1 1.629207e-07 255 255 255 255 0.014563 0.014563
4.034208 1.56206 5.759666 -1 0 0 255 255 255 255 0.985437 0.985437
4.034208 1.562061 6.870177 0 1.629207e-07 1 255 255 255 255 0.985437 0.985437
10.33993 1.56206 5.759666 0 1 -1.629207e-07 255 255 255 255 0.014563 0.985437
10.33993 1.56206 5.759666 0 -1.629207e-07 -1 255 255 255 255 0.985437 0.985437
10.33993 1.562061 6.870177 1 0 -0 255 255 255 255 0.985437 0.985437
9.229414 0.45155 5.759666 -0 -1 1.629207e-07 255 255 255 255 0.014563 0.014563
9.229414 1.56206 5.759666 -1 0 0 255 255 255 255 0.985437 0.985437
9.229414 1.562061 6.870177 0 1.629207e-07 1 255 255 255 255 0.985437 0.985437
27.59549 1.56206 -6.670083 0 1 -1.629207e-07 255 255 255 255 0.014563 0.985437
27.59549 1.56206 -6.670083 0 -1.629207e-07 -1 255 255 255 255 0.985437 0.985437
27.59549 1.56206 -5.559571 1 0 -0 255 255 255 255 0.985437 0.985437
26.48498 0.45155 -6.670081 -0 -1 1.629207e-07 255 255 255 255 0.014563 0.014563
26.48498 1.56206 -6.670083 -1 0 0 255 255 255 255 0.985437 0.985437
26.48498 1.56206 -5.559571 0 1.629207e-07 1 255 255 255 255 0.985437 0.985437
-12.8815 1.56206 -6.670083 0 1 -1.629207e-07 255 255 255 255 0.014563 0.985437
-12.8815 1.56206 -6.670083 0 -1.629207e-07 -1 255 255 255 255 0.985437 0.985437
-12.8815 1.56206 -5.559571 1 0 -0 255 255 255 255 0.985437 0.985437
-13.99201 0.45155 -6.670081 -0 -1 1.629207e-07 255 255 255 255 0.014563 0.014563
-13.99201 1.56206 -6.670083 -1 0 0 255 255 255 255 0.985437 0.985437
-13.99201 1.56206 -5.559571 0 1.629207e-07 1 255 255 255 255 0.985437 0.985437
-12.67663 2.677608 -6.670083 0 1 -1.629207e-07 255 255 255 255 0.014563 0.985437
-12.67663 2.677608 -6.670083 0 -1.629207e-07 -1 255 255 255 255 0.985437 0.985437
-12.67663 2.677608 -5.559571 1 0 -0 255 255 255 255 0.985437 0.985437
-13.78714 1.567099 -6.670083 -0 -1 1.629207e-07 255 255 255 255 0.014563 0.014563
-13.78714 2.677608 -6.670083 -1 0 0 255 255 255 255 0.985437 0.985437
-13.78714 2.677608 -5.559571 0 1.629207e-07 1 255 255 255 255 0.985437 0.985437
-15.13672 2.876705 -9.001517 0 1 -1.629207e-07 255 255 255 255 0.014563 0.985437
-15.13672 2.876705 -9.001517 0 -1.629207e-07 -1 255 255 255 255 0.985437 0.985437
-15.13672 2.876705 -7.891006 1 0 -0 255 255 255 255 0.985437 0.985437
-16.24723 1.766194 -9.001517 -0 -1 1.629207e-07 255 255 255 255 0.014563 0.014563
-16.24723 2.876705 -9.001517 -1 0 0 255 255 255 255 0.985437 0.985437
-16.24723 2.876705 -7.891006 0 1.629207e-07 1 255 255 255 255 0.985437 0.985437
-33.2226 1.56206 -6.670083 0 1 -1.629207e-07 255 255 255 255 0.014563 0.985437
-33.2226 1.56206 -6.670083 0 -1.629207e-07 -1 255 255 255 255 0.985437 0.985437
-33.2226 1.56206 -5.559571 1 0 -0 255 255 255 255 0.985437 0.985437
-34.33311 0.45155 -6.670081 -0 -1 1.629207e-07 255 255 255 255 0.014563 0.014563
-34.33311 1.56206 -6.670083 -1 0 0 255 255 255 255 0.985437 0.985437
-34.33311 1.56206 -5.559571 0 1.629207e-07 1 255 255 255 255 0.985437 0.985437
-33.01773 2.677608 -6.670083 0 1 -1.629207e-07 255 255 255 255 0.014563 0.985437
-33.01773 2.677608 -6.670083 0 -1.629207e-07 -1 255 255 255 255 0.985437 0.985437
-33.01773 2.677608 -5.559571 1 0 -0 255 255 255 255 0.985437 0.985437
-34.12824 1.567099 -6.670083 -0 -1 1.629207e-07 255 255 255 255 0.014563 0.014563
-34.12824 2.677608 -6.670083 -1 0 0 255 255 255 255 0.985437 0.985437
-34.12824 2.677608 -5.559571 0 1.629207e-07 1 255 255 255 255 0.985437 0.985437
-35.47782 2.876705 -9.001517 0 1 -1.629207e-07 255 255 255 255 0.014563 0.985437
-35.47782 2.876705 -9.001517 0 -1.629207e-07 -1 255 255 255 255 0.985437 0.985437
-35.47782 2.876705 -7.891006 1 0 -0 255 255 255 255 0.985437 0.985437
-36.58833 1.766194 -9.001517 -0 -1 1.629207e-07 255 255 255 255 0.014563 0.014563
-36.58833 2.876705 -9.001517 -1 0 0 255 255 255 255 0.985437 0.985437
-36.58833 2.876705 -7.891006 0 1.629207e-07 1 255 255 255 255 0.985437 0.985437
-35.60282 1.763325 -8.919248 0 1 -1.629207e-07 255 255 255 255 0.014563 0.985437
-35.60282 1.763325 -8.919248 0 -1.629207e-07 -1 255 255 255 255 0.985437 0.985437
-35.60282 1.763325 -7.808736 1 0 -0 255 255 255 255 0.985437 0.985437
-36.71333 0.4518409 -8.919246 -0 -1 1.629207e-07 255 255 255 255 0.014563 0.014563
-36.71333 1.763325 -8.919248 -1 0 0 255 255 255 255 0.985437 0.985437
-36.71333 1.763325 -7.808736 0 1.629207e-07 1 255 255 255 255 0.985437 0.985437
-34.27803 1.549045 6.482317 0 1 -1.629207e-07 255 255 255 255 0.014563 0.985437
-34.27803 1.549045 6.482317 0 -1.629207e-07 -1 255 255 255 255 0.985437 0.985437
-34.27803 1.549045 9.09646 1 0 -0 255 255 255 255 0.985437 0.985437
-35.3172 0.509872 6.482317 -0 -1 1.629207e-07 255 255 255 255 0.014563 0.014563
-35.3172 1.549045 6.482317 -1 0 0 255 255 255 255 0.985437 0.985437
-35.3172 1.549045 9.09646 0 1.629207e-07 1 255 255 255 255 0.985437 0.985437
-56.79076 1.549045 7.269802 -3.648147e-07 1 -1.629207e-07 255 255 255 255 0.014563 0.985437
-56.79076 1.549045 7.269802 -1 6.996639e-06 -1.139897e-12 255 255 255 255 0.985437 0.985437
-56.79076 1.549045 7.269802 -4.192987e-07 2.959405e-07 -1 255 255 255 255 0.985437 0.014563
-56.79076 0.5098715 8.308975 1.824054e-07 -1 -1.241313e-06 255 255 255 255 0.014563 0.014563
-56.79076 1.549045 8.308975 0 1.629207e-07 1 255 255 255 255 0.985437 0.985437
-54.17661 1.549046 7.269802 1 -1.196129e-12 -7.341787e-06 255 255 255 255 0.985437 0.014563
-58.1318 0.4227471 5.57881 -1 -8.301933e-06 1.352557e-12 255 255 255 255 0.014563 0.985437
-58.1318 0.4227471 5.57881 4.588695e-07 -1 1.629207e-07 255 255 255 255 0.985437 0.985437
-58.13181 2.191442 5.57881 4.867266e-08 -1.629207e-07 -1 255 255 255 255 0.985437 0.985437
-57.09263 0.4227476 6.617984 1 0 -0 255 255 255 255 0.014563 0.014563
-58.13181 2.191442 6.617984 0 1.629207e-07 1 255 255 255 255 0.985437 0.014563
-58.13181 2.191442 6.617984 0 1 -1.629207e-07 255 255 255 255 0.985437 0.985437
-58.88653 1.56206 -6.670083 0 1 -1.629207e-07 255 255 255 255 0.014563 0.985437
-58.88653 1.56206 -6.670083 0 -1.629207e-07 -1 255 255 255 255 0.985437 0.985437
-58.88653 1.56206 -5.559571 1 0 -0 255 255 255 255 0.985437 0.985437
-59.99703 0.45155 -6.670081 -0 -1 1.629207e-07 255 255 255 255 0.014563 0.014563
-59.99703 1.56206 -6.670083 -1 0 0 255 255 255 255 0.985437 0.985437
-59.99703 1.56206 -5.559571 0 1.629207e-07 1 255 255 255 255 0.985437 0.985437
3 0 1 2 
3 3 4 5 
3 6 7 8 
3 9 10 11 
3 12 13 14 
3 15 16 17 
3 18 19 20 
3 21 22 23 
3 24 25 26 
3 27 28 29 
3 30 31 32 
3 33 34 35 
3 36 37 38 
3 39 40 41 
3 42 43 44 
3 45 46 47 
3 48 49 50 
3 51 52 53 
3 54 55 56 
3 57 58 59 
3 60 61 62 
3 63 64 65 
3 66 67 68 
3 69 70 71 
3 72 73 74 
3 75 76 77 
3 78 79 80 
3 81 82 83 
3 84 85 86 
3 87 88 89 
3 90 91 92 
3 93 94 95 
3 96 97 98 
3 99 100 101 
3 102 103 104 
3 105 106 107 
3 108 109 110 
3 111 112 113 
3 114 115 116 
3 117 118 119 
3 120 121 122 
3 123 124 125 
3 126 127 128 
3 129 130 131 
3 132 133 134 
3 135 136 137 
3 138 139 140 
3 141 142 143 
3 144 145 146 
3 147 148 149 
3 150 151 152 
3 153 154 155 
3 156 157 158 
3 159 160 161 
3 162 163 164 
3 165 166 167 
3 168 169 170 
3 171 172 173 
3 174 175 176 
3 177 178 179 
3 180 181 182 
3 183 184 185 
3 186 187 188 
3 189 190 191 
3 192 193 194 
3 195 196 197 
3 198 199 200 
3 201 202 203 
3 204 205 206 
3 207 208 209 
3 210 211 212 
3 213 214 215 
3 216 217 218 
3 219 220 221 
3 222 223 224 
3 225 226 227 
3 228 229 230 
3 231 232 233 
3 234 235 236 
3 237 238 239 
3 240 241 242 
3 243 244 245 
3 246 247 248 
3 249 250 251 
3 252 253 254 
3 255 256 257 
3 258 259 260 
3 261 262 263 
3 264 265 266 
3 267 268 269 
3 270 271 272 
3 273 274 275 
3 276 277 278 
3 279 280 281 
3 282 283 284 
3 285 286 287 
3 0 288 1 
3 3 289 4 
3 6 290 7 
3 9 291 10 
3 12 292 13 
3 15 293 16 
3 18 294 19 
3 21 295 22 
3 24 296 25 
3 27 297 28 
3 30 298 31 
3 33 299 34 
3 36 300 37 
3 39 301 40 
3 42 302 43 
3 45 303 46 
3 48 304 49 
3 51 305 52 
3 54 306 55 
3 57 307 58 
3 60 308 61 
3 63 309 64 
3 66 310 67 
3 69 311 70 
3 72 312 73 
3 75 313 76 
3 78 314 79 
3 81 315 82 
3 84 316 85 
3 87 317 88 
3 90 318 91 
3 93 319 94 
3 96 320 97 
3 99 321 100 
3 102 322 103 
3 105 323 106 
3 108 324 109 
3 111 325 112 
3 114 326 115 
3 117 327 118 
3 120 328 121 
3 123 329 124 
3 126 330 127 
3 129 331 130 
3 132 332 133 
3 135 333 136 
3 138 334 139 
3 141 335 142 
3 144 336 145 
3 147 337 148 
3 150 338 151 
3 153 339 154 
3 156 340 157 
3 159 341 160 
3 162 342 163 
3 165 343 166 
3 168 344 169 
3 171 345 172 
3 174 346 175 
3 177 347 178 
3 180 348 181 
3 183 349 184 
3 186 350 187 
3 189 351 190 
3 192 352 193 
3 195 353 196 
3 198 354 199 
3 201 355 202 
3 204 356 205 
3 207 357 208 
3 210 358 211 
3 213 359 214 
3 216 360 217 
3 219 361 220 
3 222 362 223 
3 225 363 226 
3 228 364 229 
3 231 365 232 
3 234 366 235 
3 237 367 238 
3 240 368 241 
3 243 369 244 
3 246 370 247 
3 249 371 250 
3 252 372 253 
3 255 373 256 
3 258 374 259 
3 261 375 262 
3 264 376 265 
3 267 377 268 
3 270 378 271 
3 273 379 274 
3 276 380 277 
3 279 381 280 
3 282 382 283 
3 285 383 286 
