ply
format ascii 1.0
comment Created in Blender version 4.3.2
element vertex 4
property float x
property float y
property float z
property float nx
property float ny
property float nz
property float s
property float t
element face 2
property list uchar uint vertex_indices
end_header
-3.354194 -1.2073532 -7.5766193e-06 0 -4.3711385e-08 -1 1 0
3.354194 1.2073532 -7.68217e-06 0 -4.3711385e-08 -1 0 1
3.354194 -1.2073532 -7.5766193e-06 0 -4.3711385e-08 -1 0 0
-3.354194 1.2073532 -7.68217e-06 0 -4.3711385e-08 -1 1 1
3 0 1 2
3 0 3 1
